<?xml version="1.0" encoding="UTF-8"?>
<svg id="Layer_2" data-name="Layer 2" xmlns="http://www.w3.org/2000/svg" viewBox="0 0 32.94 32.94">
  <defs>
    <style>
      .cls-1 {
        fill: #fff;
        stroke-width: 0px;
      }
    </style>
  </defs>
  <g id="Layer_1-2" data-name="Layer 1">
    <path class="cls-1" d="M13.56,16.46c0-3.09,0-6.17,0-9.26,0-1.42.89-2.58,2.19-2.9,1.81-.45,3.54.85,3.62,2.74,0,.09,0,.17,0,.26,0,6.12,0,12.24,0,18.36,0,1.19-.47,2.13-1.52,2.71-1.94,1.07-4.28-.33-4.29-2.58-.02-3.11,0-6.22,0-9.33Z"/>
    <path class="cls-1" d="M5.77,20.54c0-1.73,0-3.45,0-5.18,0-1.62,1.04-2.79,2.64-2.99,1.45-.18,2.92.95,3.12,2.41.03.2.05.4.05.61,0,3.44.01,6.88,0,10.32,0,1.18-.51,2.12-1.58,2.68-1.9,1-4.19-.37-4.23-2.51,0-.02,0-.04,0-.06,0-1.76,0-3.52,0-5.27Z"/>
    <path class="cls-1" d="M27.19,24.62c-.03.59-.02,1.18-.1,1.75-.19,1.27-1.39,2.44-3.04,2.35-1.31-.07-2.53-1.14-2.64-2.5-.08-1.06-.08-2.14,0-3.21.11-1.39,1.35-2.46,2.75-2.5,1.43-.04,2.71.96,2.93,2.34.09.59.07,1.19.1,1.78Z"/>
    <path class="cls-1" d="M31.21,1.09c.35,0,.63.28.63.63v29.49c0,.35-.28.63-.63.63H1.72c-.35,0-.63-.28-.63-.63V1.72c0-.35.28-.63.63-.63h29.49M31.21,0H1.72C.77,0,0,.77,0,1.72v29.49c0,.95.77,1.72,1.72,1.72h29.49c.95,0,1.72-.77,1.72-1.72V1.72c0-.95-.77-1.72-1.72-1.72h0Z"/>
  </g>
</svg>