<?xml version="1.0" encoding="UTF-8"?>
<svg id="Layer_2" data-name="Layer 2" xmlns="http://www.w3.org/2000/svg" viewBox="0 0 19.58 32.94">
  <defs>
    <style>
      .cls-1 {
        fill: #fff;
        stroke-width: 0px;
      }
    </style>
  </defs>
  <g id="Layer_1-2" data-name="Layer 1">
    <g>
      <path class="cls-1" d="M8.77,23.17c.14.03.28.05.42.08.02,0,.03.02.05.02.24.06.47.14.69.24.6.27,1.11.66,1.53,1.16.42.5.72,1.08.88,1.71.13.51.17,1.03.1,1.55,0,.08-.02.16-.03.24l-.06.29s-.01.04-.02.05c-.07.2-.12.41-.21.61-.48,1.12-1.3,1.89-2.43,2.34-.63.25-1.29.33-1.97.26-.06,0-.11,0-.17-.01l-.43-.08s-.03-.02-.05-.02c-.3-.08-.6-.19-.88-.33-1.18-.63-1.93-1.6-2.24-2.9-.1-.41-.13-.83-.09-1.25,0-.1.02-.2.03-.29.03-.17.07-.34.1-.51,0-.01.01-.03.02-.04.07-.19.13-.39.21-.58.31-.7.77-1.28,1.39-1.73.46-.34.97-.58,1.53-.72.48-.12.96-.15,1.45-.1.06,0,.12,0,.18.01ZM7.47,30.97c1.93.38,3.84-.9,4.21-2.82.39-2.02-.92-3.83-2.77-4.23-2.01-.42-3.87.89-4.26,2.74-.44,2.05.89,3.93,2.83,4.31Z"/>
      <path class="cls-1" d="M5.41,29.03c-.35-.61-.48-1.27-.4-1.98.07.01.13.03.2.04.05,0,.1,0,.15,0,.08-.02.14-.1.14-.19,0-.1-.05-.18-.14-.2-.09-.02-.18-.04-.26-.05,0-.42.64-1.39,1.12-1.71.04.06.08.13.12.19.05.07.12.1.2.09.09-.01.14-.06.17-.14.02-.06.01-.13-.02-.18-.04-.06-.09-.12-.14-.19.63-.36,1.29-.5,2.01-.41-.01.07-.03.14-.04.21-.02.13.05.23.18.25.1.02.2-.05.22-.15.02-.07.03-.15.05-.24.69.19,1.25.56,1.7,1.12-.06.04-.12.07-.18.11-.13.1-.12.28.02.36.07.04.14.04.21,0,.06-.04.12-.08.17-.13.33.44.55,1.52.42,2.01-.07-.01-.14-.03-.21-.04-.09-.02-.16.01-.21.09-.05.07-.06.14-.01.21.03.04.07.08.12.1.07.03.16.03.24.05-.19.7-.56,1.26-1.12,1.7-.04-.06-.08-.12-.12-.18-.05-.07-.12-.12-.21-.11-.16.02-.23.18-.15.32.04.07.09.13.13.19-.63.36-1.29.5-2.01.41.02-.08.03-.15.04-.23.01-.06,0-.12-.03-.18-.05-.07-.12-.1-.21-.08-.08.02-.14.07-.16.15-.02.08-.03.16-.05.25-.7-.19-1.26-.57-1.72-1.14.08-.05.15-.09.22-.14.08-.05.1-.14.07-.23-.03-.08-.1-.15-.19-.14-.05,0-.1.02-.14.05-.06.03-.12.08-.18.12,0,0,0,0-.01,0ZM8.15,26.41h0c-.06.32-.13.65-.19.97-.01.06-.01.11.02.16.04.07.1.1.18.11.43.08.87.17,1.3.25.02,0,.05,0,.07,0,.11,0,.21-.08.21-.19,0-.12-.06-.2-.18-.22-.36-.07-.73-.14-1.09-.21-.05,0-.06-.03-.05-.08.11-.56.22-1.11.32-1.67,0-.04.01-.08,0-.11-.01-.1-.1-.17-.19-.17-.11,0-.2.06-.22.17-.06.33-.13.66-.19.99Z"/>
    </g>
    <path class="cls-1" d="M10.19,32.94c1.99-.81,2.92-2.33,2.95-4.44,0-.61.25-.77.84-.75,1.3.05,2.6.03,3.9,0,.17,0,.49-.31.49-.48.02-7.69.02-15.39,0-23.08,0-.17-.31-.5-.48-.5-5.41-.03-10.83-.01-16.24-.03-.55,0-.49.31-.49.65,0,6.53,0,13.05,0,19.58,0,1.11.01,2.22,0,3.34,0,.4.08.63.52.55.68-.13,1.05.18,1.38.76.58,1.01,1.16,2.04,1.9,2.93.51.61,1.28.99,1.94,1.48h-3.74c-1.75-.43-2.8-1.52-3.17-3.28V3.28C.36,1.51,1.42.42,3.17,0h13.24c1.79.45,2.86,1.57,3.17,3.4v26.26c-.37,1.76-1.43,2.85-3.17,3.28h-6.23Z"/>
    <path class="cls-1" d="M3.05,13.37q0-1.93,1.93-1.93c2.02,0,2.03,0,2.02,2.03-.01,2.14.26,1.85-1.84,1.87-.04,0-.08,0-.11,0q-2,0-2-1.98ZM5.05,14.49c.37-.15,1.31.4,1.05-.72-.12-.52.68-1.64-.71-1.45-.52.07-1.59-.73-1.54.72.04,1.45,0,1.45,1.21,1.45Z"/>
    <path class="cls-1" d="M3.06,8.23q0-1.93,1.93-1.93c2.02,0,2.03,0,2.02,2.03-.01,2.14.26,1.85-1.84,1.87-.04,0-.08,0-.11,0q-2,0-2-1.98ZM5.06,9.36c.37-.15,1.31.4,1.05-.72-.12-.52.68-1.64-.71-1.45-.52.07-1.59-.73-1.54.72.04,1.45,0,1.45,1.21,1.45Z"/>
    <path class="cls-1" d="M3.05,18.91q0-1.93,1.93-1.93c2.02,0,2.03,0,2.02,2.03-.01,2.14.26,1.85-1.84,1.87-.04,0-.08,0-.11,0q-2,0-2-1.98ZM5.05,20.04c.37-.15,1.31.4,1.05-.72-.12-.52.68-1.64-.71-1.45-.52.07-1.59-.73-1.54.72.04,1.45,0,1.45,1.21,1.45Z"/>
    <path class="cls-1" d="M12.36,12.79c1.08,0,2.15-.04,3.22.03.27.02.51.39.76.59-.26.21-.52.59-.78.6-2.15.05-4.3.05-6.45,0-.25,0-.5-.4-.75-.61.26-.2.5-.56.77-.58,1.07-.07,2.15-.03,3.22-.03Z"/>
    <path class="cls-1" d="M12.36,7c1.07,0,2.15-.04,3.22.03.26.02.51.35.76.53-.24.23-.48.65-.72.66-2.18.05-4.37.05-6.55,0-.24,0-.46-.4-.7-.62.24-.2.47-.55.72-.57,1.09-.06,2.18-.03,3.28-.03Z"/>
    <path class="cls-1" d="M12.35,20.06c-1.07,0-2.15.04-3.22-.03-.27-.02-.51-.37-.77-.58.25-.21.5-.6.76-.6,2.14-.05,4.29-.05,6.44,0,.26,0,.52.39.78.6-.26.2-.5.56-.77.58-1.07.07-2.14.03-3.22.03Z"/>
  </g>
</svg>