<?xml version="1.0" encoding="UTF-8"?>
<svg id="Layer_2" data-name="Layer 2" xmlns="http://www.w3.org/2000/svg" viewBox="0 0 19.58 32.94">
  <defs>
    <style>
      .cls-1 {
        fill: #fff;
        stroke-width: 0px;
      }
    </style>
  </defs>
  <g id="Layer_1-2" data-name="Layer 1">
    <g>
      <path class="cls-1" d="M10.19,32.94c1.99-.81,2.92-2.33,2.95-4.44,0-.61.25-.77.84-.75,1.3.05,2.6.03,3.9,0,.17,0,.49-.31.49-.48.02-7.69.02-15.39,0-23.08,0-.17-.31-.5-.48-.5-5.41-.03-10.83-.01-16.24-.03-.55,0-.49.31-.49.65,0,6.53,0,13.05,0,19.58,0,1.11.01,2.22,0,3.34,0,.4.08.63.52.55.68-.13,1.05.18,1.38.76.58,1.01,1.16,2.04,1.9,2.93.51.61,1.28.99,1.94,1.48h-3.74c-1.75-.43-2.8-1.52-3.17-3.28V3.28C.36,1.51,1.42.42,3.17,0h13.24c1.79.45,2.86,1.57,3.17,3.4v26.26c-.37,1.76-1.43,2.85-3.17,3.28h-6.23Z"/>
      <path class="cls-1" d="M5.05,23.62c0-.75-.06-1.51.03-2.26.03-.27.42-.5.64-.75.24.26.68.51.69.78.07,1.39.03,2.79.04,4.18,0,.15.15.31.23.46.08-.16.21-.31.22-.47.03-.55-.07-1.11.04-1.63.06-.3.43-.54.66-.81.25.25.66.48.72.77.12.56.02,1.16.05,1.75,0,.15.17.29.26.43.09-.15.24-.3.25-.45.04-.41-.07-.85.04-1.23.08-.28.42-.49.64-.73.24.25.61.46.7.75.12.4.01.86.04,1.29,0,.11.16.22.25.33.09-.11.25-.21.26-.33.04-.32-.07-.67.04-.95.1-.25.4-.59.61-.59.24,0,.71.33.7.51,0,1.67.02,3.35-.18,5.01-.18,1.48-1.31,2.23-2.71,2.49-1.36.26-2.68-.02-3.5-1.17-1.28-1.79-2.4-3.68-3.56-5.55-.11-.18-.12-.59,0-.7.13-.13.54-.15.71-.04.62.42,1.18.92,1.76,1.39.09.07.17.14.26.21.03-.12.09-.24.09-.35,0-.77,0-1.55,0-2.32h0Z"/>
      <path class="cls-1" d="M3.05,13.37q0-1.93,1.93-1.93c2.02,0,2.03,0,2.02,2.03-.01,2.14.26,1.85-1.84,1.87-.04,0-.08,0-.11,0q-2,0-2-1.98ZM5.05,14.49c.37-.15,1.31.4,1.05-.72-.12-.52.68-1.64-.71-1.45-.52.07-1.59-.73-1.54.72.04,1.45,0,1.45,1.21,1.45Z"/>
      <path class="cls-1" d="M12.36,12.79c1.08,0,2.15-.04,3.22.03.27.02.51.39.76.59-.26.21-.52.59-.78.6-2.15.05-4.3.05-6.45,0-.25,0-.5-.4-.75-.61.26-.2.5-.56.77-.58,1.07-.07,2.15-.03,3.22-.03Z"/>
      <path class="cls-1" d="M12.36,7c1.07,0,2.15-.04,3.22.03.26.02.51.35.76.53-.24.23-.48.65-.72.66-2.18.05-4.37.05-6.55,0-.24,0-.46-.4-.7-.62.24-.2.47-.55.72-.57,1.09-.06,2.18-.03,3.28-.03Z"/>
      <path class="cls-1" d="M12.35,20.06c-1.07,0-2.15.04-3.22-.03-.27-.02-.51-.37-.77-.58.25-.21.5-.6.76-.6,2.14-.05,4.29-.05,6.44,0,.26,0,.52.39.78.6-.26.2-.5.56-.77.58-1.07.07-2.14.03-3.22.03Z"/>
      <path class="cls-1" d="M5.01,17.53q2,0,1.99,1.99c0,.19-.08.38-.13.57-.25-.22-.73-.48-.7-.66.2-1.17-.47-1.09-1.29-1.13-.9-.05-1.17.25-1.02,1.08.09.54.21,1.08.24,1.62,0,.12-.32.37-.47.36-.2-.01-.54-.23-.54-.37-.05-1.02-.05-2.03,0-3.05,0-.14.29-.38.47-.4.48-.06.98-.02,1.47-.02Z"/>
      <path class="cls-1" d="M4.71,9.3c-.51.02-1.76-1.4-1.63-1.81.06-.18.28-.44.43-.44.22,0,.53.13.65.3.34.52.57.42.86-.03.27-.41.56-.81.92-1.13.16-.15.57-.22.73-.12.16.1.29.57.19.7-.58.83-1.23,1.61-1.87,2.39-.07.09-.23.11-.28.13Z"/>
    </g>
  </g>
</svg>