<?xml version="1.0" encoding="UTF-8"?>
<svg id="Layer_2" data-name="Layer 2" xmlns="http://www.w3.org/2000/svg" viewBox="0 0 24.72 32.03">
  <defs>
    <style>
      .cls-1 {
        fill: #fff;
        stroke-width: 0px;
      }
    </style>
  </defs>
  <g id="Layer_1-2" data-name="Layer 1">
    <path class="cls-1" d="M24.62,19.9c.01-.08.06-.16.09-.23v-1.41c-.09-.32-.16-.65-.26-.97-.76-2.41-2.34-3.84-4.73-4.3-.18-.03-.36-.08-.68-.15.85-.48,1.59-.88,2.33-1.3,1.58-.89,2.58-2.24,3-4.08.77-3.4-1.58-6.92-4.91-7.33-.18-.02-.36-.09-.53-.13h-.74c-3.02.65-5.46,2.61-8.17,3.97-2.17,1.1-4.26,2.35-6.41,3.49C1.63,8.53.35,10.11.09,12.49c0,.08-.06.16-.09.24v.77c.07.33.12.67.2.99.62,2.61,2.53,4.36,5.09,4.67.09.01.18.04.44.1-.71.4-1.27.73-1.85,1.02-1.89.94-3.13,2.41-3.56,4.6-.68,3.41,1.91,6.94,5.23,7.14,1.33.08,2.54-.21,3.71-.87,2.28-1.27,4.58-2.51,6.87-3.77-.03.52.01,1.06.18,1.6.09.3.22.58.38.85,0,.02.01.03.02.05l.25.37s.07.09.11.13c.43.53.95.94,1.58,1.21,1.11.48,2.24.51,3.37.06.2-.08.39-.19.58-.28.02,0,.04-.02.05-.02.08-.05.16-.11.24-.16.06-.05.13-.1.19-.15.41-.32.75-.71,1.02-1.17.34-.57.53-1.18.59-1.83.06-.65-.03-1.28-.26-1.9-.09-.23-.19-.45-.32-.66,0-.02-.01-.03-.02-.05-.08-.12-.16-.24-.24-.36-.04-.04-.08-.09-.11-.13-.31-.38-.68-.7-1.1-.96-.1-.06-.2-.09-.3-.14,1.21-.96,2.02-2.21,2.27-3.94ZM20.74,27.77c.21.3.42.61.62.92.07.11.06.21-.03.29-.08.07-.21.07-.29-.01-.02-.02-.03-.04-.05-.06-.25-.37-.49-.73-.74-1.1-.04-.06-.07-.13-.05-.21.02-.06.05-.09.1-.13.27-.18.55-.37.82-.55,0,0,0,0,0,0,.28-.19.56-.38.83-.56.09-.06.19-.05.27.03.06.06.07.18.01.26-.02.03-.05.05-.08.07-.47.32-.94.64-1.41.95-.05.03-.05.05-.02.1ZM21.07,24.96c-.08.03-.15.03-.22-.02-.04-.03-.06-.07-.07-.11.11-.06.21-.12.32-.17.04-.02.08-.05.12-.07-.01.08-.02.16-.04.23-.01.06-.05.12-.11.14ZM9.02,21.04v-9.95c2.6,1.68,5.14,3.31,7.74,4.98-2.62,1.68-5.14,3.3-7.74,4.96ZM23.43,25.71c1.04,1.59.67,3.8-1.03,4.95-1.62,1.1-3.88.65-4.97-.98-.55-.82-.72-1.79-.55-2.7.17-.09.34-.19.51-.28-.02.05-.04.1-.05.15,0,0,0,0,.01,0,.07.01.14.02.21.04.05.01.1.03.13.07.07.06.08.16.04.24-.04.08-.12.13-.21.11-.08-.01-.17-.04-.26-.06-.08.73.04,1.4.41,2.02.08-.05.14-.1.21-.14.07-.05.15-.04.22,0,.07.05.1.12.09.2,0,.07-.05.11-.1.15-.06.04-.12.08-.19.13.45.57,1.02.94,1.71,1.13.01-.08.02-.16.04-.23.04-.16.21-.22.33-.12.07.06.09.14.07.22-.01.07-.03.14-.04.21.71.08,1.37-.05,2-.41-.05-.07-.1-.14-.14-.21-.02-.04-.02-.11-.01-.15.02-.08.08-.13.16-.14.09-.02.16.02.21.09.04.06.08.12.12.18.44-.25,1.05-1.17,1.13-1.72-.07-.01-.14-.02-.21-.03-.08-.02-.13-.07-.15-.14-.05-.15.08-.29.24-.26.07,0,.14.03.21.05.08-.72-.05-1.38-.41-2-.07.05-.13.09-.2.13-.09.05-.2.03-.26-.05-.08-.11-.06-.23.05-.3.06-.04.11-.08.18-.12-.44-.57-1.01-.93-1.71-1.13.16-.09.32-.18.47-.28.68.26,1.3.72,1.74,1.4Z"/>
  </g>
</svg>