<?xml version="1.0" encoding="UTF-8"?>
<svg id="Layer_2" data-name="Layer 2" xmlns="http://www.w3.org/2000/svg" viewBox="0 0 137.72 20.98">
  <defs>
    <style>
      .cls-1 {
        fill: #fff;
        stroke-width: 0px;
      }
    </style>
  </defs>
  <g id="Layer_1-2" data-name="Layer 1">
    <g>
      <path class="cls-1" d="M16.9,0c1.07.14,2.18.05,3.26.07,1.14.02,2.27.1,3.4.2,1.81.15,3.89.14,5.18,1.63,1.25,1.45,1.15,3.85,1.21,5.65.08,2.39.12,4.77-.15,7.15-.21,1.94-.21,4.13-2.11,5.23-.93.54-1.99.58-3.03.68-1.17.11-2.34.12-3.51.18-4.8.23-9.69.29-14.48-.07-2.19-.17-4.67-.26-5.78-2.48-.46-.92-.54-2.05-.6-3.06-.08-1.34-.08-2.72-.29-4.04,0-.49,0-.97,0-1.46C.22,6.93-.26,2.21,2.79.82,4.27.15,6.26.21,7.86.15c1.68-.06,3.43.07,5.09-.15,1.32,0,2.63,0,3.95,0ZM11.96,10.45c0,1.29-.18,2.73,0,4.01.06.45.09.5.54.34.5-.18.99-.55,1.45-.82,1.04-.6,2.07-1.21,3.1-1.82.46-.27,2.78-1.25,2.73-1.77-.03-.26-1.19-.77-1.39-.89-.46-.27-.93-.54-1.4-.81-1.05-.59-2.09-1.18-3.14-1.77-.44-.25-.93-.63-1.41-.79-.46-.16-.44,0-.48.46-.11,1.26,0,2.59,0,3.86Z"/>
      <path class="cls-1" d="M36.68,19.7c-1.25,0-2.49,0-3.74,0-.44,0-.48-.05-.39-.48,1.18-5.68,2.36-11.37,3.53-17.05.11-.51.12-.52.63-.52,2.24,0,4.48,0,6.72,0,.78,0,1.54.08,2.26.4,1.06.49,1.65,1.32,1.71,2.49.09,1.72-.4,3.24-1.62,4.49-.52.53-1.14.87-1.85,1.07-.08.02-.15.08-.23.12.08.03.15.09.23.1,1.4.29,2.22,1.23,2.25,2.66.04,1.96-.55,3.69-1.97,5.1-1.07,1.06-2.4,1.54-3.87,1.61-1.22.06-2.45.01-3.68.01v.02ZM39.63,11.89c-.55,0-.82-.1-.99.45-.2.65-.29,1.36-.43,2.02-.07.31-.54,1.65-.36,1.9.19.26,1.18.14,1.45.11,1.16-.13,1.93-1.28,2.08-2.37.19-1.39-.39-2.11-1.75-2.11ZM40.97,4.96h0c-.84,0-.83.11-.99.94-.13.64-.26,1.27-.39,1.91-.13.61-.3.87.35.95.42.05.93,0,1.33-.16.86-.37,1.3-1.44,1.29-2.33-.02-.99-.69-1.3-1.58-1.3Z"/>
      <path class="cls-1" d="M137.72,9.27c-.11,1.67-.44,3.32-.87,4.94-.41,1.54-.91,3.14-1.95,4.37-.92,1.08-2.14,1.54-3.55,1.48-1.52-.07-1.9-.83-2.46-2.09-.18.43-.16,1.41-.5,1.7-.32.27-1.55.07-1.93.07-.44,0-.88,0-1.31,0-.18,0-.79.11-.94-.04-.25-.24.19-1.38.25-1.69.68-3.27,1.36-6.55,2.04-9.82.33-1.6.66-3.2,1-4.8.1-.46.09-1.48.51-1.76.36-.24,1.53-.02,1.96-.02.43,0,.87,0,1.3,0,.16,0,.67-.07.83,0,.45.22.08.95-.02,1.39-.31,1.44-.81,2.97-.88,4.44.54-.54.92-1.14,1.64-1.47.73-.34,1.57-.35,2.35-.26,2.04.24,2.21,1.85,2.53,3.56ZM133.14,10.29s-.05-.01-.08-.02c-.03-.71-.17-1.37-1.05-1.3-.81.06-1.17.86-1.4,1.54-.51,1.52-.96,3.43-.95,5.04,0,.72.14,1.26.99,1.2.72-.06,1-.55,1.24-1.17.65-1.7.91-3.5,1.25-5.28Z"/>
      <path class="cls-1" d="M102.66,8.08c-.5,0-1.52.2-1.97,0-.45-.2-.12-.92-.05-1.37.15-.93.39-2.7-1.21-2.29-1.34.34-1.72,2.51-1.97,3.65-.35,1.53-.62,3.07-.91,4.61-.18.97-1.07,3.41,0,4.11,1.33.88,2.11-.91,2.39-1.86.18-.62.25-1.63.6-2.17.28-.43.83-.27,1.33-.27.76,0,1.52,0,2.28,0,.55,0,.89-.14.86.44-.06,1.37-.7,3.04-1.43,4.18-.63.98-1.5,1.79-2.56,2.29-2.05.96-5.6,1.24-7.42-.35-2.04-1.78-1.09-5.48-.66-7.74.53-2.77,1.19-5.99,3.2-8.1,1.95-2.05,5.88-2.63,8.39-1.34,1.39.71,1.91,2.22,1.79,3.72-.04.41-.11.83-.18 1.23-.05.28-.02.86-.21 1.09-.35.44-1.76.18-2.27.18h0Z"/>
      <path class="cls-1" d="M115.85,5.98c.4,0,.8,0,1.2,0,.16,0,.79-.09.92.02.32.26-.2,1.66-.27,2.04-.38,1.82-.75,3.63-1.13,5.45-.18.89-1.13,3.38.6,3.25,1.57-.12,1.65-2.94,1.89-4.07.38-1.87.77-3.73,1.16-5.6.13-.6.04-1.03.68-1.09.95-.08,1.93,0,2.88,0,.51,0,1-.18,1.1.32.06.3-.18.87-.24,1.18-.1.5-.2.99-.31 1.49-.39,1.87-.77,3.74-1.16 5.61-.22,1.04-.43,2.09-.65,3.13-.15.74-.05,1.97-.96,2.03-1.02.07-2.1,0-3.12,0-1.15,0-.31-.83-.46-1.62-.66.52-1.06,1.19-1.86,1.56-.96.44-2.06.52-3.09.26-2.05-.52-1.75-2.42-1.44-4.08.4-2.17.87-4.34,1.33-6.5.11-.54.23-1.09.34-1.63.09-.43.09-1.19.33-1.55.31-.46,1.75-.2,2.27-.2Z"/>
      <path class="cls-1" d="M51.98,20.12c-1.31-.16-2.79-.16-3.8-1.16-.94-.93-.97-2.29-.89-3.53.19-2.82.97-6.52,3.26-8.42.95-.78,2.13-1.19,3.34-1.31 1.34-.13,3.14-.15,4.33.57 2.72,1.64,1.33,6.38.55,8.76-1.06,3.22-3.41,5.01-6.79,5.01,0,.02,0,.05,0,.07ZM55.37,9.75s-.05,0-.07-.01c-.04-.72-.24-1.36-1.11-1.22-.72.12-1.06.87-1.28,1.5-.33.94-.48,1.99-.69,2.97-.2.94-.46,1.9-.48,2.86-.01.69.11,1.44.97,1.35.86-.09,1.21-.97,1.44-1.69.58-1.88.86-3.83,1.21-5.76Z"/>
      <path class="cls-1" d="M74.42,15.53c.39,0,1.59-.21,1.86.04.26.25.02.9.21,1.27.47.89,1.81.53,2.28-.19.81-1.24-.62-1.84-1.56-2.21-1.08-.42-2.37-.74-3.12-1.7-1.2-1.55-.4-4.07.86-5.34,1.67-1.68,4.43-2.06,6.66-1.62,1.09.21,2.19.74,2.57,1.86.18.53.2,1.21.11,1.76-.13.72-.9.48-1.51.48-.6,0-1.52.19-2.09,0-.52-.17-.18-.66-.41-1.09-.41-.8-1.7-.45-2.11.17-.9,1.36,1.01,1.86,1.94,2.16,1.08.35,2.35.76,2.97,1.79,1,1.63,0,4.11-1.24,5.35-1.84,1.84-5.15,2.33-7.54,1.45-1-.37-1.7-1.07-1.9-2.13-.09-.48-.19-1.3.02-1.75.27-.57,1.44-.31,2.01-.31Z"/>
      <path class="cls-1" d="M106.54,19.74c-.63,0-1.26,0-1.88,0-.34,0-.37-.05-.3-.38 1.2-5.79,2.4-11.58,3.6-17.37.06-.28.19-.39.47-.38 1.21.01,2.41,0,3.62,0 .49,0 .5.02.4.5-.86,4.12-1.71,8.25-2.57,12.37-.33,1.61-.67,3.21-1,4.82-.09.42-.1.44-.54.44-.6,0-1.2,0-1.79,0Z"/>
      <path class="cls-1" d="M61.78,19.74c-.61,0-1.22,0-1.82,0-.4,0-.43-.04-.35-.42.63-3.06,1.27-6.13,1.9-9.19.26-1.25.52-2.5.77-3.75.06-.29.19-.4.49-.4 1.24.01,2.47,0,3.71,0 .36,0 .39.04.32.39-.89,4.32-1.79,8.64-2.68,12.97-.06.29-.19.41-.49.4-.62-.02-1.24,0-1.85,0Z"/>
      <path class="cls-1" d="M72.12,1.6c.37,0,1.63-.21,1.95.02.28.2-.16,1.5-.22,1.8-.26,1.34-.49,2.71-.91,4.01-.37,1.14-1,2.22-2.02,2.88-.44.28-2.35,1.17-2.79.69-.14-.16.18-1.52.32-1.76.24-.42.89-.42,1.27-.74.36-.3.57-.71.72-1.15.17-.5.31-.82-.25-.91-.72-.12-1.2.25-1.03-.64.14-.76.32-1.52.47-2.27.09-.43.14-1.68.54-1.89.44-.23,1.46-.02,1.95-.02Z"/>
      <path class="cls-1" d="M64.85,4.96c-.64,0-1.28,0-1.91,0-.26,0-.34-.09-.29-.35.19-.88.37-1.76.55-2.65.05-.22.16-.33.39-.33 1.28,0,2.55,0,3.83,0 .25,0 .35.1.29.36-.19.88-.38,1.76-.55,2.65-.05.23-.16.32-.4.32-.64,0-1.28,0-1.91,0Z"/>
    </g>
  </g>
</svg>


