<?xml version="1.0" encoding="UTF-8"?>
<svg id="Layer_2" data-name="Layer 2" xmlns="http://www.w3.org/2000/svg" viewBox="0 0 24.72 32.03">
  <defs>
    <style>
      .cls-1 {
        fill: #fff;
        stroke-width: 0px;
      }
    </style>
  </defs>
  <g id="Layer_1-2" data-name="Layer 1">
    <path class="cls-1" d="M24.72,18.25v1.41c-.03.08-.08.15-.09.23-.34,2.27-1.63,3.73-3.53,4.76-3.96,2.13-7.9,4.3-11.83,6.49-1.17.65-2.38.95-3.71.87-3.32-.2-5.92-3.73-5.23-7.14.44-2.18,1.68-3.65,3.56-4.59.58-.29,1.13-.63,1.85-1.02-.26-.06-.35-.09-.44-.1-2.56-.3-4.46-2.05-5.09-4.67-.08-.33-.13-.66-.2-.99,0-.26,0-.51,0-.77.03-.08.08-.15.09-.24.26-2.38,1.54-3.96,3.53-5.02,2.15-1.14,4.24-2.4,6.41-3.49,2.7-1.37,5.14-3.33,8.17-3.97.25,0,.49,0,.74,0,.18.04.35.11.53.13,3.33.41,5.68,3.92,4.91,7.33-.42,1.84-1.42,3.19-3,4.08-.74.42-1.48.82-2.33,1.3.33.07.5.12.68.15,2.39.46,3.96,1.89,4.73,4.3.1.32.18.65.26.97ZM16.76,16.08c-2.6-1.68-5.14-3.31-7.74-4.98v9.95c2.6-1.67,5.12-3.28,7.74-4.96Z"/>
  </g>
</svg>


